Coordinates
version=1
nRows=13
nColumns=36
inDegrees=yes

Units are S.I. units (second, meters, Newtons, ...)
If the header above contains a line with 'inDegrees', this indicates whether rotational values are in degrees (yes) or radians (no).

endheader
time	pelvis_tilt	pelvis_list	pelvis_rotation	pelvis_tx	pelvis_ty	pelvis_tz	hip_flexion_r	hip_adduction_r	hip_rotation_r	knee_angle_r	knee_angle_r_beta	ankle_angle_r	subtalar_angle_r	mtp_angle_r	hip_flexion_l	hip_adduction_l	hip_rotation_l	knee_angle_l	knee_angle_l_beta	ankle_angle_l	subtalar_angle_l	mtp_angle_l	lumbar_extension	lumbar_bending	lumbar_rotation	arm_flex_r	arm_add_r	arm_rot_r	elbow_flex_r	pro_sup_r	arm_flex_l	arm_add_l	arm_rot_l	elbow_flex_l	pro_sup_l
      5.46666670	     -4.87826268	      1.67843481	     -0.62291065	     -0.03480376	      0.92955799	     -0.04362340	      7.14060644	     -1.98378922	     -2.24576929	      6.27849197	      0.10958036	      5.12176640	     -6.84593861	     -7.49999987	      7.67970853	     -2.66655638	     -1.45119110	      6.49107754	      0.11329068	      2.42876722	     -8.32712630	     -7.49999987	     -4.65243369	      4.62780039	      5.78162671	     87.13053794	      9.49528436	     48.49664209	    142.70919501	    103.68523863	     98.86863670	     12.94603846	     66.54934907	    128.80938030	     93.88415259
      5.48333330	     -4.84342393	      1.58451637	     -0.58380688	     -0.03800278	      0.93018715	     -0.04658536	      7.21426134	     -2.10649159	     -2.41286280	      6.39589820	      0.11162948	      5.05999795	     -6.97494386	     -7.49999987	      7.40600968	     -2.51361330	     -1.62016731	      6.00734191	      0.10484790	      2.61529407	     -8.01353895	     -7.49999987	     -4.09557786	      4.88502851	      5.53935145	     86.12504181	      9.79667711	     46.58858194	    142.73620742	    100.67302450	     98.73490695	     12.44627023	     67.27422163	    128.26651495	     91.64597084
      5.50000000	     -4.55164966	      1.48969785	     -0.60205884	     -0.03705691	      0.93034818	     -0.04831737	      7.05139040	     -2.19677828	     -2.35910065	      6.70331754	      0.11699496	      4.49990289	     -7.87637716	     -7.49999987	      6.81283283	     -2.39624907	     -1.58690861	      5.43072470	      0.09478403	      2.66133969	     -7.88605438	     -7.49999987	     -3.73380789	      4.97112347	      5.62105205	     85.34886707	      9.58253855	     44.96883846	    142.91749644	     99.03448419	     98.23845759	     11.67223580	     67.54837058	    127.19965922	     90.71917531
      5.51666670	     -4.42306558	      1.43610708	     -0.83011847	     -0.03850857	      0.92977715	     -0.05129791	      7.09190908	     -2.31584471	     -2.26619324	      7.08723783	      0.12369563	      3.53670340	     -8.99319801	     -7.49999987	      6.39194032	     -2.28423674	     -1.78486026	      4.86993340	      0.08499637	      2.59065680	     -7.61816415	     -7.49999987	     -3.44066760	      5.04862065	      6.48677666	     84.52978883	      7.27223712	     43.41230088	    142.83192948	    100.79428362	     97.80654838	     11.52075993	     67.08874925	    126.94304850	     94.67965015
      5.53333330	     -4.18187147	      1.39973748	     -0.78528657	     -0.03822384	      0.93216939	     -0.05254685	      7.03682216	     -2.47557287	     -2.68016130	      7.75388102	      0.13533075	      2.65222030	     -9.79370269	     -7.49999987	      6.03219838	     -2.17869593	     -1.49306519	      4.62871832	      0.08078637	      2.97736126	     -7.29475556	     -7.49999987	     -3.05296844	      4.99497569	      6.27385363	     84.25740096	      7.80736650	     45.71905302	    142.43799366	     97.61974509	     96.39861199	     11.34910990	     68.21317543	    126.69414607	     91.77064294
      5.55000000	     -4.06852261	      1.40880904	     -0.89653382	     -0.03853453	      0.93364914	     -0.05479337	      7.07554686	     -2.68559375	     -2.98623294	      8.36765250	      0.14604309	      1.39117776	    -11.26298196	     -7.49999987	      5.78961753	     -2.06204160	     -1.38592440	      4.49137324	      0.07838925	      3.17350313	     -7.10352811	     -7.49999987	     -2.42707261	      5.01498547	      6.33573868	     83.86732258	      7.84365373	     47.05921727	    142.48635312	    100.35103632	     94.99892761	     11.28063549	     68.23731847	    126.31484732	     92.74254226
      5.56666670	     -4.03946603	      1.49874171	     -1.10479433	     -0.03821001	      0.93488534	     -0.05659901	      7.21540669	     -3.01420703	     -3.51103948	      8.81783338	      0.15390023	      0.40324701	    -12.38515111	     -7.49999987	      5.59001620	     -1.85667650	     -1.32933421	      4.41873351	      0.07712145	      3.30272883	     -7.16372734	     -7.49999987	     -1.93134099	      5.01926490	      5.75216876	     82.42742275	      9.47170908	     49.59647887	    142.17519499	     98.37458128	     93.98074373	     10.08948764	     69.17959531	    124.87988902	     90.69194945
      5.58333330	     -4.05681176	      1.53992511	     -1.39263749	     -0.03779779	      0.93408662	     -0.05590126	      7.34189734	     -3.23808126	     -4.12231773	      8.80925264	      0.15375046	      0.35249248	    -12.78474908	     -7.49999987	      5.36639774	     -1.78061466	     -1.58749878	      4.23893129	      0.07398331	      3.93582735	     -6.50365549	     -7.49999987	     -1.19531538	      4.91650301	      5.81766735	     79.25434041	     10.83556214	     50.11699669	    142.98980262	     95.21806460	     93.38927356	      9.50234071	     69.58117313	    123.50608973	     87.45226736
      5.60000000	     -3.96523074	      1.61290029	     -1.57642168	     -0.03843587	      0.93734781	     -0.05621870	      7.11264215	     -3.44348882	     -4.60978131	      8.21273141	      0.14333920	      0.47608738	    -13.20959675	     -7.49999987	      4.86541782	     -1.63423087	     -1.23214964	      3.56164422	      0.06216242	      3.61441436	     -6.96584320	     -7.49999987	     -0.65039093	      4.95159119	      5.91143165	     78.64948166	     12.33296214	     50.64723012	    143.15302894	     99.31535741	     92.49982291	      9.18470457	     69.49936569	    122.04375879	     89.73854913
      5.61666670	     -3.94606296	      1.67406234	     -1.77491182	     -0.03950053	      0.93480926	     -0.05727212	      6.94400026	     -3.58603942	     -5.02090161	      7.58694818	      0.13241723	      0.79495929	    -13.18582592	     -7.49999987	      4.47404006	     -1.53837075	     -1.33818784	      2.95787754	      0.05162470	      3.68091149	     -6.76189114	     -7.49999987	     -0.32318168	      4.93423080	      6.20120540	     76.99140418	     13.28125885	     49.02365808	    143.43429660	     98.34893132	     91.81115818	      8.99109006	     69.11225694	    120.79759790	     88.70757313
      5.63333330	     -4.01237015	      1.74319535	     -2.14334233	     -0.04141231	      0.93405851	     -0.05645788	      6.88982281	     -3.67887195	     -5.27631007	      6.74436258	      0.11771133	      1.13167729	    -12.82159493	     -7.49999987	      4.11990571	     -1.43977323	     -1.62301302	      2.13774623	      0.03731071	      3.51064903	     -6.40207234	     -7.49999987	     -1.06447716	      4.84073410	      6.33892667	     78.40917676	     12.02652479	     47.65934903	    141.99863926	     97.18183403	     93.30911857	      9.06345431	     68.89425726	    119.68232875	     87.86667279
      5.65000000	     -4.09501063	      1.78159122	     -2.44757670	     -0.04016972	      0.93675610	     -0.05522742	      6.60607113	     -3.64030668	     -5.55268431	      5.60989379	      0.09791112	      1.19902977	    -12.07747194	     -7.49999987	      3.81449027	     -1.42299898	     -1.97035060	      1.38792405	      0.02422384	      3.16967556	     -5.89858077	     -7.49999987	     -1.70511579	      4.72114295	      6.85645864	     80.67674625	      9.90290031	     48.38907896	    140.67996768	     97.54403493	     94.42200386	      9.30587234	     69.16547121	    119.42857890	     87.58788183
      5.66666670	     -4.26381043	      1.79543271	     -2.63561559	     -0.04147756	      0.93279558	     -0.05581732	      6.48735710	     -3.57175947	     -5.71876464	      4.68254820	      0.08172588	      1.09375743	    -11.80422886	     -7.49999987	      3.76028889	     -1.40144844	     -2.26119452	      0.90715395	      0.01583282	      3.07606074	     -5.53502096	     -7.49999987	     -1.93905342	      4.63836652	      7.21834586	     82.84147148	      8.74464359	     48.18766286	    139.42443336	     97.95490785	     95.32840879	      9.69951033	     68.09001496	    120.25804860	     87.96112123
